<svg xmlns="http://www.w3.org/2000/svg" xmlns:xlink="http://www.w3.org/1999/xlink" width="386.4962406500258" height="386.96240650025834" style=""><rect id="backgroundrect" width="100%" height="100%" x="0" y="0" fill="none" stroke="none" class="" style=""/>
  <defs>
    <linearGradient id="linear-gradient" x1="0.46799999475479126" y1="0.4659999907016754" x2="-0.5350000262260437" y2="0.460999995470047" gradientUnits="objectBoundingBox">
      <stop offset="0" stop-color="#fff"/>
      <stop offset="1" stop-color="gray"/>
    </linearGradient>
  </defs>
  
<g class="currentLayer" style=""><title>Layer 1</title><g id="server" class="">
    <path id="Path_11" data-name="Path 11" d="M203.8528271947546,343.02549502563477 h427.64344290554527 v-151.2 H203.8528271947546 z" fill="url(#linear-gradient)"/>
    <path id="Path_10" data-name="Path 10" d="M2.000015136441459,67.84849203491211 l138.42333355164527,83.638 " fill="none" stroke="#00c2ff" stroke-linecap="round" stroke-width="4" stroke-dasharray="14 12"/>
    <g id="pc1">
      <path id="Path_1" data-name="Path 1" d="M103.90955016997235,101.29029276598419 L164.90030740276865,137.85195599401584 L103.90955016997238,175.3314438240276 L42.91879293717619,137.85195599401584 z" fill="#4eedff"/>
      <path id="Path_3" data-name="Path 3" d="M42.91822748531578,137.85249710083008 v73.9 l60.806744502067566,37.981 l0.025938039064407382,-74.595 z" fill="#00c2ff"/>
      <path id="Path_5" data-name="Path 5" d="M51.46480453739134,158.13551712036133 v4.432 l3.6472873392105103,2.278 l0,-4.474 z" fill="#c9f2ff"/>
      <path id="Path_5-2" data-name="Path 5" d="M51.46480453739134,166.8015022277832 v4.432 l3.6472873392105103,2.278 l0,-4.474 z" fill="#c9f2ff"/>
      <path id="Path_5-3" data-name="Path 5" d="M51.46480453739134,175.46750259399414 v4.432 l3.6472873392105103,2.278 l0,-4.474 z" fill="#c9f2ff"/>
      <path id="Path_5-4" data-name="Path 5" d="M51.46480453739134,184.13350296020508 v4.432 l3.6472873392105103,2.278 l0,-4.474 z" fill="#c9f2ff"/>
      <path id="Path_5-5" data-name="Path 5" d="M51.46480453739134,192.79950332641602 v4.432 l3.6472873392105103,2.278 l0,-4.474 z" fill="#c9f2ff"/>
      <path id="Path_5-6" data-name="Path 5" d="M51.46480453739134,201.46550369262695 v4.432 l3.6472873392105103,2.278 l0,-4.474 z" fill="#c9f2ff"/>
      <path id="Path_5-7" data-name="Path 5" d="M58.290540196758975,162.69650650024414 v4.432 l18.996620764017106,11.54 l0,-4.474 z" fill="#0058cb"/>
      <path id="Path_6" data-name="Path 6" d="M81.97492958922597,176.6315040588379 v4.432 l12.569972777366639,7.2780000000000005 l0,-4.474 z" fill="#84ffea"/>
      <path id="Path_6-2" data-name="Path 6" d="M81.97492958922597,184.88850784301758 v4.432 l12.569972777366639,7.2780000000000005 l0,-4.474 z" fill="#84ffea"/>
      <path id="Path_6-3" data-name="Path 6" d="M81.97492958922597,193.14650344848633 v4.432 l12.569972777366639,7.2780000000000005 l0,-4.474 z" fill="#84ffea"/>
      <path id="Path_6-4" data-name="Path 6" d="M81.97492958922597,201.40449905395508 v4.432 l12.569972777366639,7.2780000000000005 l0,-4.474 z" fill="#84ffea"/>
      <path id="Path_6-5" data-name="Path 6" d="M81.97492958922597,210.17750930786133 v4.432 l12.569972777366639,7.2780000000000005 l0,-4.474 z" fill="#84ffea"/>
      <path id="Path_6-6" data-name="Path 6" d="M81.97492958922597,218.95149612426758 v4.432 l12.569972777366639,7.2780000000000005 l0,-4.474 z" fill="#84ffea"/>
      <path id="Path_5-8" data-name="Path 5" d="M58.290540196758975,170.90649795532227 v4.432 l18.996620764017106,11.54 l0,-4.474 z" fill="#0058cb"/>
      <path id="Path_5-9" data-name="Path 5" d="M58.290540196758975,179.11650466918945 v4.432 l18.996620764017106,11.54 l0,-4.474 z" fill="#0058cb"/>
      <path id="Path_5-10" data-name="Path 5" d="M58.290540196758975,187.7825050354004 v4.432 l18.996620764017106,11.54 l0,-4.474 z" fill="#0058cb"/>
      <path id="Path_5-11" data-name="Path 5" d="M58.290540196758975,196.44850540161133 v4.432 l18.996620764017106,11.54 l0,-4.474 z" fill="#0058cb"/>
      <path id="Path_5-12" data-name="Path 5" d="M58.290540196758975,205.11450576782227 v4.432 l18.996620764017106,11.54 l0,-4.474 z" fill="#0058cb"/>
      <path id="Path_4" data-name="Path 4" d="M164.89984101772902,137.85249710083008 v73.9 L103.77784957934017,249.73249710083007 l-0.025938039064407382,-74.595 z" fill="#0060b4"/>
      <path id="Path_8" data-name="Path 8" d="M156.65058887047584,154.76649856567383 v4.432 l-3.6472873392105103,2.278 l0,-4.474 z" fill="#c9f2ff"/>
      <path id="Path_7" data-name="Path 7" d="M148.93599897211922,159.3275032043457 v4.432 l-18.996620764017106,11.54 l0,-4.474 z" fill="#30ffc7"/>
      <ellipse id="Ellipse_1" data-name="Ellipse 1" cx="140.87867736816406" cy="192.56192016601562" rx="11.789999961853027" ry="17.40399932861328" transform="matrix(0.9540257737556826,0.29237170472273677,-0.29167494993945065,0.9563047559630354,57.59827700692694,-30.219722342010186) " fill="#002a4e"/>
    </g>
    <g id="pc1-2" data-name="pc1">
      <path id="Path_1-2" data-name="Path 1" d="M201.9843071209139,46.14205398360741 L323.9658215865063,119.2653804396706 L201.98430712091385,194.2243560996941 L80.00279265532143,119.26538043967065 z" fill="#4eedff"/>
      <path id="Path_3-2" data-name="Path 3" d="M80.00267461455971,119.26547622680664 V267.06547622680665 l121.60949853658677,75.962 l0.05187607812881475,-149.19 z" fill="#00c2ff"/>
      <path id="Path_5-13" data-name="Path 5" d="M97.09688722530048,159.83148574829102 v8.864 l7.293577061533928,4.556 l0,-8.948 z" fill="#c9f2ff"/>
      <path id="Path_5-14" data-name="Path 5" d="M97.09688722530048,177.1634864807129 v8.864 l7.293577061533928,4.556 l0,-8.948 z" fill="#c9f2ff"/>
      <path id="Path_5-15" data-name="Path 5" d="M97.09688722530048,194.49647903442383 v8.864 l7.293577061533928,4.556 l0,-8.948 z" fill="#c9f2ff"/>
      <path id="Path_5-16" data-name="Path 5" d="M97.09688722530048,211.8284797668457 v8.864 l7.293577061533928,4.556 l0,-8.948 z" fill="#c9f2ff"/>
      <path id="Path_5-17" data-name="Path 5" d="M97.09688722530048,229.16048049926758 v8.864 l7.293577061533928,4.556 l0,-8.948 z" fill="#c9f2ff"/>
      <path id="Path_5-18" data-name="Path 5" d="M97.09688722530048,246.49248123168945 v8.864 l7.293577061533928,4.556 l0,-8.948 z" fill="#c9f2ff"/>
      <path id="Path_5-19" data-name="Path 5" d="M110.74823676463059,168.9534797668457 v8.864 l37.99324152803421,23.08 l0,-8.948 z" fill="#0058cb"/>
      <path id="Path_6-7" data-name="Path 6" d="M158.11610220402582,196.8234748840332 v8.864 l25.146928872942926,14.556000000000001 l0,-8.948 z" fill="#84ffea"/>
      <path id="Path_6-8" data-name="Path 6" d="M158.11610220402582,213.33948135375977 v8.864 l25.146928872942926,14.556000000000001 l0,-8.948 z" fill="#84ffea"/>
      <path id="Path_6-9" data-name="Path 6" d="M158.11610220402582,229.8544807434082 v8.864 l25.146928872942926,14.556000000000001 l0,-8.948 z" fill="#84ffea"/>
      <path id="Path_6-10" data-name="Path 6" d="M158.11610220402582,246.36948013305664 v8.864 l25.146928872942926,14.556000000000001 l0,-8.948 z" fill="#84ffea"/>
      <path id="Path_6-11" data-name="Path 6" d="M158.11610220402582,263.91748428344727 v8.864 l25.146928872942926,14.556000000000001 l0,-8.948 z" fill="#84ffea"/>
      <path id="Path_6-12" data-name="Path 6" d="M158.11610220402582,281.46548080444336 v8.864 l25.146928872942926,14.556000000000001 l0,-8.948 z" fill="#84ffea"/>
      <path id="Path_5-20" data-name="Path 5" d="M110.74823676463059,185.37347793579102 v8.864 l37.99324152803421,23.08 l0,-8.948 z" fill="#0058cb"/>
      <path id="Path_5-21" data-name="Path 5" d="M110.74823676463059,201.79347610473633 v8.864 l37.99324152803421,23.08 l0,-8.948 z" fill="#0058cb"/>
      <path id="Path_5-22" data-name="Path 5" d="M110.74823676463059,219.12648391723633 v8.864 l37.99324152803421,23.08 l0,-8.948 z" fill="#0058cb"/>
      <path id="Path_5-23" data-name="Path 5" d="M110.74823676463059,236.4584846496582 v8.864 l37.99324152803421,23.08 l0,-8.948 z" fill="#0058cb"/>
      <path id="Path_5-24" data-name="Path 5" d="M110.74823676463059,253.79047775268555 v8.864 l37.99324152803421,23.08 l0,-8.948 z" fill="#0058cb"/>
      <path id="Path_4-2" data-name="Path 4" d="M323.97091314546753,119.26547622680664 V267.06547622680665 L201.7209445673673,343.0264762268066 l-0.05287369501590735,-149.19 z" fill="#0060b4"/>
      <path id="Path_8-2" data-name="Path 8" d="M307.46733649517716,153.09448623657227 v8.864 l-7.293577061533928,4.556 l0,-8.948 z" fill="#c9f2ff"/>
      <path id="Path_7-2" data-name="Path 7" d="M292.0391543153511,162.21648025512695 v8.864 l-37.99324152803421,23.08 l0,-8.948 z" fill="#30ffc7"/>
      <ellipse id="Ellipse_1-2" data-name="Ellipse 1" cx="276.792724609375" cy="228.55589294433594" rx="23.579999923706055" ry="34.808998107910156" transform="matrix(0.9540257737556826,0.29237170472273677,-0.29167494993945065,0.9563047559630354,68.43092455676901,-65.69782871069452) " fill="#002a4e"/>
    </g>
    <path id="Path_9" data-name="Path 9" d="M254.04093608925575,225.04849279785157 l138.42333355164527,83.638 " fill="none" stroke="#00c2ff" stroke-linecap="round" stroke-width="4" stroke-dasharray="14 12"/>
  </g></g></svg>